<?xml version="1.0" standalone="no"?>
<!DOCTYPE svg PUBLIC "-//W3C//DTD SVG 20010904//EN"
 "http://www.w3.org/TR/2001/REC-SVG-20010904/DTD/svg10.dtd">
<svg version="1.0" xmlns="http://www.w3.org/2000/svg"
 width="482.000000pt" height="482.000000pt" viewBox="0 0 482.000000 482.000000"
 preserveAspectRatio="xMidYMid meet">
<metadata>
Created by potrace 1.11, written by Peter Selinger 2001-2013
</metadata>
<g transform="translate(0.000000,482.000000) scale(0.100000,-0.100000)"
fill="#000000" stroke="none">
<path d="M2009 4666 c-138 -36 -228 -142 -237 -281 -5 -81 -9 -68 122 -452
l96 -282 -101 -403 c-55 -222 -103 -412 -105 -423 -2 -11 -19 -78 -37 -149
-26 -104 -37 -130 -53 -137 -19 -7 -28 12 -117 234 -275 690 -418 1042 -431
1061 -95 145 -288 171 -418 57 -79 -69 -105 -190 -68 -308 10 -32 46 -146 80
-253 176 -557 352 -1128 385 -1255 30 -113 31 -125 22 -515 -2 -96 0 -190 4
-210 4 -19 10 -52 13 -72 40 -260 187 -533 393 -728 132 -125 195 -169 358
-249 166 -81 253 -106 475 -137 95 -13 322 -2 445 22 11 2 34 7 50 10 50 9
206 63 275 96 221 105 414 294 537 528 48 91 116 272 128 342 4 18 10 52 15
74 18 77 25 178 25 329 -1 164 -6 234 -34 430 -21 149 -20 186 9 345 12 63 23
129 26 145 3 17 15 75 26 130 11 55 22 111 24 125 4 21 30 151 118 585 3 11
20 94 40 185 93 437 94 444 92 525 -2 87 -30 165 -78 216 -119 127 -336 129
-444 5 -44 -50 -71 -108 -113 -246 -18 -58 -50 -161 -71 -230 -71 -232 -219
-713 -295 -965 -42 -137 -80 -254 -84 -258 -4 -4 -26 47 -48 115 -46 139 -131
374 -270 747 -82 222 -94 260 -88 296 6 46 9 61 24 150 6 33 13 78 16 100 2
22 13 87 24 145 20 111 17 173 -12 241 -49 113 -152 181 -276 181 -38 0 -74
-2 -79 -5 -4 -4 -25 14 -45 38 -71 84 -210 129 -318 101z m173 -143 c18 -10
39 -31 47 -45 14 -24 13 -28 -13 -58 -47 -56 -62 -99 -116 -322 -29 -120 -56
-218 -60 -218 -4 0 -12 17 -18 38 -5 20 -37 116 -70 212 -69 203 -75 231 -55
291 40 118 174 167 285 102z m355 -130 c46 -22 81 -70 92 -128 9 -48 8 -69 -9
-160 -5 -27 -11 -66 -14 -85 -3 -19 -12 -80 -21 -135 -9 -55 -18 -113 -20
-128 -6 -45 -15 -101 -19 -124 -3 -12 -8 -43 -12 -70 -3 -26 -8 -57 -10 -68
-3 -11 -7 -39 -10 -61 -2 -23 -6 -51 -9 -62 -2 -11 -7 -42 -11 -69 -3 -26 -8
-57 -10 -68 -2 -10 -6 -37 -9 -60 -3 -22 -15 -96 -26 -165 -10 -69 -26 -170
-35 -225 -9 -55 -17 -111 -20 -125 -2 -14 -7 -55 -10 -91 -6 -64 -5 -68 19
-83 29 -19 73 -13 86 13 5 9 12 40 16 70 4 30 9 63 11 75 2 12 7 39 9 61 3 22
10 69 16 105 6 36 12 74 13 85 2 11 6 40 10 65 4 25 9 56 11 70 3 14 11 70 20
125 9 55 18 111 20 125 13 89 18 116 23 124 6 10 122 -311 272 -748 63 -185
83 -219 135 -232 57 -14 113 14 143 71 10 19 41 119 132 415 21 69 54 177 73
240 20 63 63 203 96 310 206 673 201 658 233 702 39 56 137 83 205 57 41 -15
91 -67 104 -108 19 -56 17 -78 -31 -301 -16 -75 -31 -150 -34 -166 -7 -34 -11
-54 -25 -114 -5 -25 -12 -56 -14 -70 -3 -14 -46 -227 -95 -475 -50 -247 -93
-466 -96 -485 -3 -19 -8 -46 -11 -60 -3 -14 -9 -50 -15 -80 -5 -30 -12 -71
-16 -90 -14 -82 -11 -168 11 -330 l8 -54 -33 27 c-87 74 -163 93 -390 102
-129 4 -215 11 -270 21 -14 2 -53 9 -87 14 -274 45 -535 157 -843 361 -96 64
-192 123 -213 130 -26 9 -36 18 -32 29 2 8 93 371 200 805 108 435 206 822
217 862 44 152 153 214 275 156z m-1564 -569 c18 -9 42 -30 54 -47 18 -26 492
-1196 518 -1276 5 -17 -1 -32 -22 -59 -29 -37 -55 -78 -60 -97 -1 -5 -6 -27
-12 -47 -33 -135 73 -405 238 -607 179 -219 433 -386 746 -490 117 -39 299
-83 400 -97 28 -3 57 -7 65 -9 111 -20 437 -34 473 -20 19 8 31 42 25 72 -6
31 -48 41 -213 47 -88 4 -173 8 -190 11 -16 2 -52 7 -80 10 -65 7 -94 12 -230
40 -214 44 -484 159 -646 275 -210 150 -379 372 -448 590 -26 83 -30 116 -19
165 18 81 74 127 173 146 72 13 96 2 310 -140 259 -171 521 -291 740 -336 11
-3 40 -9 65 -14 50 -12 91 -18 165 -27 28 -3 56 -7 63 -9 7 -3 79 -7 160 -10
211 -8 230 -11 299 -45 96 -47 162 -137 183 -250 12 -65 5 -221 -16 -335 -12
-63 -18 -89 -46 -180 -112 -372 -379 -642 -738 -748 -145 -43 -215 -52 -400
-52 -187 0 -255 10 -413 62 -414 134 -747 496 -831 904 -13 63 -30 212 -29
244 1 6 4 105 8 220 6 171 4 225 -8 291 -21 105 -276 949 -457 1508 -33 104
-50 171 -47 192 14 104 125 163 220 118z"/>
</g>
</svg>
